<svg height="368pt" viewBox="0 0 368 368" width="368pt" xmlns="http://www.w3.org/2000/svg">
  <path d="m328 96h-56v-16.808594c18.230469-3.71875 32-19.871094 32-39.191406 0-22.054688-17.945312-40-40-40h-224c-22.054688 0-40 17.945312-40 40 0 19.3125 13.769531 35.472656 32 39.191406v248.808594c0 22.054688 17.945312 40 40 40h160c22.054688 0 40-17.945312 40-40v-24h56c22.054688 0 40-17.945312 40-40v-128c0-22.054688-17.945312-40-40-40zm-72 232c0 13.230469-10.769531 24-24 24h-160c-13.230469 0-24-10.769531-24-24v-184h64.808594c3.71875 18.230469 19.871094 32 39.191406 32s35.472656-13.769531 39.191406-32h64.808594zm-208-200v-48h64v48zm208 0h-64v-48h64zm8-64h-80c-4.414062 0-8 3.574219-8 8v64c0 13.230469-10.769531 24-24 24s-24-10.769531-24-24v-64c0-4.425781-3.585938-8-8-8h-80c-13.230469 0-24-10.769531-24-24s10.769531-24 24-24h224c13.230469 0 24 10.769531 24 24s-10.769531 24-24 24zm88 200c0 13.230469-10.769531 24-24 24h-56v-176h56c13.230469 0 24 10.769531 24 24zm0 0" />
</svg>