<svg viewBox="0 0 512 512.00036" xmlns="http://www.w3.org/2000/svg">
<path d="m95.335938 416.625c-.492188 3.488281-.742188 7.035156-.742188 10.621094 0 20.011718 7.792969 38.824218 21.941406 52.972656l31.785156 31.78125 10.59375-10.59375c33.636719-33.640625 54.027344-98.367188 38.035157-142.578125h.667969c16.152343 0 37.832031-1.097656 62.542968-5.195313 69.417969-11.507812 130.046875-41.53125 175.332032-86.816406 57.726562-57.722656 72.996093-121.980468 75.640624-165.71875 2.863282-47.40625-7.964843-81.1875-8.425781-82.601562l-2.363281-7.226563-7.222656-2.359375c-1.417969-.464844-35.191406-11.296875-82.601563-8.425781-43.738281 2.644531-107.996093 17.914063-165.71875 75.636719-45.296875 45.296875-75.253906 106.003906-86.628906 175.558594-4.109375 25.117187-5.132813 47.089843-5.0625 63.347656-44.121094-15.917969-108.816406 4.363281-142.515625 38.058594l-10.59375 10.597656 31.78125 31.78125c17.300781 17.296875 41.023438 24.351562 63.554688 21.160156zm315.796874-386.15625c29.644532-1.941406 53.503907 2.261719 65.078126 4.933594 2.679687 11.589844 6.878906 35.449218 4.933593 65.082031-1.101562 16.835937-3.945312 33.046875-8.488281 48.605469-29.6875 1.570312-58.261719-9.3125-79.539062-30.589844-21.277344-21.28125-32.164063-49.855469-30.589844-79.539062 15.558594-4.542969 31.769531-7.386719 48.605468-8.492188zm-145.144531 66.839844c20.226563-20.222656 42.464844-35.949219 66.539063-47.101563 1.363281 33.503907 15.113281 65.1875 39.402344 89.480469 24.292968 24.289062 55.972656 38.039062 89.480468 39.40625-11.152344 24.074219-26.878906 46.308594-47.105468 66.535156-41.203126 41.203125-94.394532 67.542969-158.09375 78.285156-31.636719 5.335938-58.175782 5.28125-72.753907 4.605469-1.753906-36.628906.371094-149.046875 82.53125-231.210937zm-110.617187 252.710937 6.664062 6.628907c21.746094 28.148437 6.5625 82.722656-14.613281 112.078124l-9.695313-9.695312c-8.492187-8.492188-13.167968-19.777344-13.167968-31.785156 0-12.003906 4.675781-23.292969 13.167968-31.78125l-21.191406-21.1875c-17.523437 17.523437-46.039062 17.523437-63.566406 0l-9.707031-9.707032c32.980469-23.847656 86.507812-34.351562 112.109375-14.550781zm0 0" />
<path d="m409.734375 71.785156h29.964844v29.964844h-29.964844zm0 0" />
<path d="m241.171875 270.445312 13.394531.738282c24.152344 1.355468 56.128906-6.695313 74.984375-25.554688 27.820313-27.820312 25.660157-73.070312 25.554688-74.984375l-.738281-13.394531-13.394532-.738281c-1.910156-.105469-47.167968-2.265625-74.984375 25.550781-27.820312 27.820312-25.660156 73.074219-25.554687 74.988281zm46.003906-67.191406c10.390625-10.390625 25.742188-14.40625 37.105469-15.9375-1.539062 11.378906-5.5625 26.769532-15.917969 37.125-10.390625 10.390625-25.746093 14.40625-37.105469 15.9375 1.539063-11.378906 5.5625-26.769531 15.917969-37.125zm0 0" />
</svg>