<svg xmlns="http://www.w3.org/2000/svg" xmlns:xlink="http://www.w3.org/1999/xlink" x="0px" y="px" viewBox="0 0 512 512" style="enable-background:new 0 0 512 512;" xml:space="preserve" fill="#ffffff" width="30" height="30">
  <g>
    <path d="M256,0v30c41.355,0,75,26.916,75,60s-33.645,60-75,60c-41.355,0-75-26.916-75-60c0-0.519,1.614-3.962,9.282-7.797    C199.437,77.625,212.456,75,226,75s26.562,2.625,35.718,7.203c6.113,3.057,8.378,5.865,9.046,7.143    C268.221,91.071,258.819,95,226,95v30c20.724,0,35.446-1.368,46.333-4.305C297.276,113.967,301,98.576,301,90    c0-13.991-9.186-26.29-25.865-34.629C261.76,48.683,244.31,45,226,45s-35.76,3.683-49.135,10.371C160.186,63.71,151,76.009,151,90    c0,42.746,10.121,83.155,28.498,113.784c16.407,27.344,37.856,44.505,61.502,49.605V512h30V253.389    c23.646-5.1,45.095-22.26,61.502-49.605C350.879,173.155,361,132.746,361,90C361,40.374,313.897,0,256,0z" />
  </g>
  <g>
    <path d="M227.489,368.153c-10.558-10.558-24.394-17.208-39.233-18.857l-50.469-5.608l5.608,50.469    c1.649,14.839,8.299,28.676,18.857,39.233c18.015,18.015,47.223,18.015,65.238,0C245.504,415.376,245.504,386.168,227.489,368.153z" />
  </g>
  <g>
    <path d="M323.744,309.296c-14.839,1.649-28.675,8.299-39.233,18.857c-18.015,18.015-18.015,47.223-0.001,65.237    c18.015,18.015,47.223,18.015,65.238,0c10.558-10.557,17.208-24.394,18.857-39.233l5.608-50.469L323.744,309.296z" />
  </g>
</svg>