<svg xmlns="http://www.w3.org/2000/svg" xmlns:xlink="http://www.w3.org/1999/xlink" x="0px" y="0px" viewBox="0 0 197.73 197.73" style="enable-background:new 0 0 197.73 197.73;" xml:space="preserve">
  <path d="M194.687,70.878c-2.732,0-5.82,0.001-8.449,0c-1.11-9.839-7.903-19.823-17.683-22.579c-0.903-12.096-11.035-21.66-23.358-21.66c-2.145,0-4.244,0.286-6.278,0.854c-3.74-8.261-12.066-13.774-21.345-13.774c-6.899,0-13.293,2.99-17.68,8.054c-4.384-5.559-11.147-8.946-18.406-8.946c-10.025,0-18.679,6.234-21.992,15.33c-2.639-1-5.45-1.519-8.304-1.519c-12.429,0-22.628,9.732-23.379,21.976c-9.684,2.962-16.464,11.897-16.526,22.245c-2.663-0.002-5.304-0.003-7.911-0.003C1.511,70.856,0,72.367,0,74.231c0,22.528,0.662,42.478,8.798,58.49c7.305,14.377,20.51,25.543,42.34,35.638c-2.607,2.88-4.245,7.61-4.245,13.168c0,1.864,1.511,3.375,3.375,3.375h90.986c1.863,0,3.375-1.511,3.375-3.375c0-4.993-1.322-9.317-3.48-12.233c23.853-10.674,39.012-23.588,47.471-40.356c8.412-16.679,9.109-35.089,9.109-54.06C197.728,73.013,196.552,70.878,194.687,70.878z M31.771,54.592c1.686-0.299,2.881-1.814,2.779-3.523c-0.022-0.376-0.033-0.705-0.033-1.007c0-9.194,7.479-16.674,16.673-16.674c3.095,0,6.118,0.856,8.742,2.476c0.958,0.592,2.148,0.666,3.173,0.199c1.024-0.467,1.749-1.415,1.93-2.526c1.322-8.089,8.241-13.96,16.45-13.96c6.524,0,12.485,3.844,15.187,9.793c0.535,1.178,1.696,1.946,2.99,1.978c1.293,0.029,2.491-0.678,3.084-1.828c2.875-5.583,8.557-9.051,14.826-9.051c7.479,0,14.09,5.033,16.074,12.239c0.262,0.953,0.928,1.743,1.823,2.162c0.896,0.418,1.929,0.424,2.829,0.014c2.178-0.992,4.499-1.495,6.896-1.495c9.194,0,16.674,7.48,16.674,16.674c0,0.284-0.006,0.566-0.021,0.847c-0.088,1.784,1.229,3.329,3.006,3.523c7.459,0.815,13.329,8.673,14.547,16.447c0,0-160.325-0.012-161.366-0.012C18.1,62.829,23.856,55.997,31.771,54.592zM133.217,165.358c-0.013,0.005-0.022,0.011-0.034,0.016h-14.43c-1.864,0-3.375,1.511-3.375,3.375s1.511,3.375,3.375,3.375h15.425c0.999,0,2.716,2.267,3.403,6.029H53.938c0.687-3.763,2.404-6.029,3.404-6.029h35.76c1.864,0,3.375-1.511,3.375-3.375s-1.511-3.375-3.375-3.375H61.123c-0.008-0.003-0.015-0.008-0.023-0.011c-24.696-10.293-38.971-21.303-46.286-35.699c-7.069-13.91-7.983-31.801-8.06-52.056c33.135,0.01,181.532,0.002,184.204,0.002C190.689,114.979,185.28,143.907,133.217,165.358z" />
</svg>